<svg width="66" height="66" viewBox="0 0 66 66" fill="none" xmlns="http://www.w3.org/2000/svg">
<path d="M46.75 57.75C49.7876 57.75 52.25 55.2876 52.25 52.25C52.25 49.2124 49.7876 46.75 46.75 46.75C43.7124 46.75 41.25 49.2124 41.25 52.25C41.25 55.2876 43.7124 57.75 46.75 57.75Z" stroke="black" stroke-width="4" stroke-linecap="round" stroke-linejoin="round"/>
<path d="M22 57.75C25.0376 57.75 27.5 55.2876 27.5 52.25C27.5 49.2124 25.0376 46.75 22 46.75C18.9624 46.75 16.5 49.2124 16.5 52.25C16.5 55.2876 18.9624 57.75 22 57.75Z" stroke="black" stroke-width="4" stroke-linecap="round" stroke-linejoin="round"/>
<path d="M8.25 8.25H11.5269C12.8236 8.25 13.9441 9.15585 14.2158 10.4238L21.5342 44.5762C21.8059 45.8441 22.9264 46.75 24.2231 46.75H46.75" stroke="black" stroke-width="4" stroke-linecap="round" stroke-linejoin="round"/>
<path d="M16.5 16.5H54.0946C55.9246 16.5 57.2441 18.2539 56.7369 20.0122L51.9773 36.5122C51.6377 37.6894 50.5602 38.5 49.335 38.5H21.2596" stroke="black" stroke-width="4" stroke-linecap="round" stroke-linejoin="round"/>
</svg>
